<?xml version="1.0" standalone="no"?>
<!DOCTYPE svg PUBLIC "-//W3C//DTD SVG 20010904//EN"
 "http://www.w3.org/TR/2001/REC-SVG-20010904/DTD/svg10.dtd">
<svg version="1.0" xmlns="http://www.w3.org/2000/svg"
 width="512.000000pt" height="512.000000pt" viewBox="0 0 512.000000 512.000000"
 preserveAspectRatio="xMidYMid meet">

<g transform="translate(0.000000,512.000000) scale(0.100000,-0.100000)"
fill="#000000" stroke="none">
<path d="M320 5106 c-147 -41 -267 -162 -306 -310 -20 -76 -20 -4396 0 -4472
29 -111 118 -224 214 -273 104 -53 26 -51 1802 -51 1072 0 1660 4 1689 11 123
28 235 119 293 236 l33 68 5 1027 5 1026 236 274 c615 711 770 896 796 947 22
44 27 69 27 125 0 94 -27 155 -102 228 -121 119 -389 341 -439 365 -106 49
-220 38 -310 -30 -22 -18 -79 -77 -125 -132 l-83 -100 -5 380 -5 380 -33 67
c-37 76 -105 151 -172 191 -103 60 -8 57 -1820 56 -1293 -1 -1665 -4 -1700
-13z m3415 -231 c36 -22 57 -45 77 -84 l28 -53 0 -472 -1 -471 -335 -387 -335
-388 -1260 0 c-1104 0 -1264 -2 -1289 -15 -38 -20 -50 -43 -50 -98 0 -35 6
-50 26 -71 l27 -26 1179 0 c725 0 1178 -4 1176 -9 -1 -5 -97 -120 -212 -255
l-209 -246 -963 0 -962 0 -31 -26 c-26 -22 -31 -33 -31 -71 0 -55 12 -78 50
-98 25 -13 142 -15 890 -15 473 0 860 -2 860 -5 0 -3 -60 -76 -134 -162 -82
-94 -136 -167 -140 -185 -3 -16 -13 -53 -21 -83 l-16 -55 -721 -2 -720 -3 -24
-28 c-36 -42 -34 -109 5 -148 l29 -29 686 0 c466 0 686 -3 686 -10 0 -9 -97
-399 -116 -467 l-6 -23 -592 0 c-325 0 -608 -3 -628 -6 -56 -10 -88 -46 -88
-101 0 -24 5 -53 11 -65 25 -47 34 -48 735 -48 l658 0 195 80 c108 44 324 133
481 198 l285 117 333 385 c183 212 390 450 458 529 l125 143 -3 -864 -3 -864
-30 -59 c-23 -45 -42 -66 -79 -90 l-49 -30 -1626 -3 c-1209 -2 -1640 0 -1680
8 -71 16 -142 83 -159 152 -17 67 -17 4309 0 4376 15 60 87 134 144 150 26 7
562 10 1680 9 l1641 -2 48 -30z m737 -754 c23 -9 392 -320 415 -350 7 -9 12
-34 13 -56 0 -36 -9 -51 -101 -158 -56 -65 -105 -117 -109 -115 -5 2 -119 99
-253 217 l-245 214 94 116 c81 99 124 138 156 141 4 0 17 -4 30 -9z m-159
-645 c125 -109 226 -202 225 -206 -2 -3 -380 -448 -841 -988 l-839 -981 -171
147 c-263 225 -332 286 -332 293 0 4 379 449 843 988 l843 981 23 -17 c12 -10
124 -108 249 -217z m-1840 -2124 c104 -91 185 -168 180 -172 -7 -6 -173 -73
-495 -201 -32 -12 -46 -14 -43 -6 2 7 34 127 70 267 81 313 74 292 88 283 7
-4 97 -81 200 -171z"/>
<path d="M623 4435 c-40 -17 -53 -42 -53 -98 0 -55 32 -91 88 -101 68 -11
2724 -7 2765 5 77 21 100 120 43 178 l-26 26 -1393 2 c-1168 2 -1397 0 -1424
-12z"/>
<path d="M599 3701 c-39 -39 -41 -106 -5 -148 l24 -28 1405 -3 1405 -2 31 26
c36 30 49 81 31 125 -27 63 81 59 -1458 59 l-1404 0 -29 -29z"/>
</g>
</svg>
